<?xml version="1.0" encoding="UTF-8" standalone="no"?>
<svg
   xmlns:dc="http://purl.org/dc/elements/1.1/"
   xmlns:cc="http://creativecommons.org/ns#"
   xmlns:rdf="http://www.w3.org/1999/02/22-rdf-syntax-ns#"
   xmlns:svg="http://www.w3.org/2000/svg"
   xmlns="http://www.w3.org/2000/svg"
   xmlns:sodipodi="http://sodipodi.sourceforge.net/DTD/sodipodi-0.dtd"
   xmlns:inkscape="http://www.inkscape.org/namespaces/inkscape"
   width="64mm"
   height="64mm"
   viewBox="0 0 64 64"
   version="1.1"
   id="svg879"
   inkscape:version="1.0.2 (1.0.2+r75+1)"
   sodipodi:docname="polyring_icon.svg">
  <defs
     id="defs873" />
  <sodipodi:namedview
     id="base"
     pagecolor="#ffffff"
     bordercolor="#666666"
     borderopacity="1.0"
     inkscape:pageopacity="0.0"
     inkscape:pageshadow="2"
     inkscape:zoom="2.8"
     inkscape:cx="121.24496"
     inkscape:cy="145.07845"
     inkscape:document-units="mm"
     inkscape:current-layer="g1478"
     inkscape:document-rotation="0"
     showgrid="false" />
  <metadata
     id="metadata876">
    <rdf:RDF>
      <cc:Work
         rdf:about="">
        <dc:format>image/svg+xml</dc:format>
        <dc:type
           rdf:resource="http://purl.org/dc/dcmitype/StillImage" />
        <dc:title />
      </cc:Work>
    </rdf:RDF>
  </metadata>
  <g
     inkscape:label="Ebene 1"
     inkscape:groupmode="layer"
     id="layer1">
    <g
       id="g1478"
       transform="translate(6.1681492,14.687213)">
      <path
         id="circle850"
         style="fill:none;stroke:#000001;stroke-width:2.89134;stroke-miterlimit:4;stroke-dasharray:none"
         d="M 84.886719 65.591797 A 55.352441 55.352441 0 0 0 29.533203 120.94531 A 55.352441 55.352441 0 0 0 84.886719 176.29688 A 55.352441 55.352441 0 0 0 137.97461 136.61133 C 135.67629 136.4096 133.54652 135.75492 131.58984 134.63086 C 129.25591 133.26095 127.40312 131.38271 126.0332 128.99805 C 124.71403 126.56265 124.05469 123.84898 124.05469 120.85547 C 124.05469 117.81123 124.71403 115.0956 126.0332 112.71094 C 127.40312 110.27555 129.25591 108.37381 131.58984 107.00391 C 133.52543 105.89196 135.63049 105.23869 137.90039 105.0293 A 55.352441 55.352441 0 0 0 84.886719 65.591797 z "
         transform="matrix(0.26458333,0,0,0.26458333,-6.1681492,-14.687213)" />
      <path
         d="m 19.259909,12.562994 q 1.3208,0 2.3876,0.626532 1.08373,0.609599 1.69333,1.69333 0.62653,1.083731 0.62653,2.404528 0,1.320798 -0.6096,2.404529 -0.59267,1.066798 -1.64253,1.69333 -1.03293,0.609599 -2.31986,0.609599 -1.10067,0 -2.01507,-0.457199 -0.91439,-0.474133 -1.50706,-1.286931 v 4.961457 q 0,0.287866 -0.18627,0.474132 -0.18626,0.186267 -0.47413,0.186267 -0.28786,0 -0.47413,-0.186267 -0.16933,-0.186266 -0.16933,-0.474132 V 21.41911 q -0.0169,-0.0508 -0.0169,-0.1524 v -3.979326 q 0,-1.320797 0.6096,-2.404528 0.62653,-1.083731 1.69333,-1.69333 1.08373,-0.626532 2.40453,-0.626532 z m 0,8.246517 q 0.9652,0 1.74413,-0.457199 0.79587,-0.457199 1.23613,-1.253064 0.4572,-0.812799 0.4572,-1.811864 0,-0.999064 -0.4572,-1.794929 -0.44026,-0.812799 -1.23613,-1.269998 -0.77893,-0.474132 -1.74413,-0.474132 -0.9652,0 -1.74413,0.474132 -0.77893,0.457199 -1.23613,1.269998 -0.44027,0.795865 -0.44027,1.794929 0,0.287867 0.0169,0.423333 0.0169,0.03387 0.0169,0.08467 0.16933,1.320798 1.10067,2.167463 0.94826,0.846665 2.28599,0.846665 z"
         style="font-style:normal;font-variant:normal;font-weight:normal;font-stretch:normal;font-size:16.9333px;line-height:0%;font-family:Comfortaa;-inkscape-font-specification:'Comfortaa, Normal';font-variant-ligatures:normal;font-variant-caps:normal;font-variant-numeric:normal;font-variant-east-asian:normal;text-align:start;letter-spacing:0px;word-spacing:0px;writing-mode:lr-tb;text-anchor:start;fill:#000000;fill-opacity:1;stroke:none;stroke-width:0.264583px;stroke-linecap:butt;stroke-linejoin:miter;stroke-opacity:1"
         id="path856" />
      <path
         d="m 30.740669,21.994842 q -1.33773,0 -2.42146,-0.609599 -1.0668,-0.609599 -1.6764,-1.676397 -0.6096,-1.083731 -0.6096,-2.421462 0,-1.33773 0.6096,-2.421461 0.6096,-1.083732 1.6764,-1.69333 1.08373,-0.609599 2.42146,-0.609599 1.33773,0 2.40453,0.609599 1.0668,0.609598 1.67639,1.69333 0.62654,1.083731 0.62654,2.421461 0,1.337731 -0.6096,2.421462 -0.6096,1.066798 -1.69333,1.676397 -1.0668,0.609599 -2.40453,0.609599 z m 0,-1.185331 q 0.98213,0 1.76106,-0.457199 0.77893,-0.457199 1.2192,-1.253064 0.44027,-0.812799 0.44027,-1.811864 0,-1.015998 -0.44027,-1.811863 -0.44027,-0.812798 -1.2192,-1.269997 -0.77893,-0.457199 -1.76106,-0.457199 -0.9652,0 -1.76106,0.457199 -0.77894,0.457199 -1.23614,1.269997 -0.44026,0.795865 -0.44026,1.811863 0,0.999065 0.44026,1.811864 0.4572,0.795865 1.23614,1.253064 0.79586,0.457199 1.76106,0.457199 z"
         style="font-style:normal;font-variant:normal;font-weight:normal;font-stretch:normal;font-size:16.9333px;line-height:0%;font-family:Comfortaa;-inkscape-font-specification:'Comfortaa, Normal';font-variant-ligatures:normal;font-variant-caps:normal;font-variant-numeric:normal;font-variant-east-asian:normal;text-align:start;letter-spacing:0px;word-spacing:0px;writing-mode:lr-tb;text-anchor:start;fill:#000000;fill-opacity:1;stroke:none;stroke-width:0.265;stroke-linecap:butt;stroke-linejoin:miter;stroke-miterlimit:4;stroke-dasharray:none;stroke-opacity:1"
         id="path858" />
      <path
         d="m 39.986219,21.910175 q -1.03293,0 -1.69333,-0.812798 -0.64347,-0.829732 -0.64347,-2.116663 V 9.328733 q 0,-0.287866 0.18627,-0.457199 0.18627,-0.186266 0.4572,-0.186266 0.28787,0 0.4572,0.186266 0.18626,0.169333 0.18626,0.457199 v 9.651981 q 0,0.728132 0.28787,1.185331 0.3048,0.4572 0.762,0.4572 h 0.42333 q 0.254,0 0.4064,0.186266 0.1524,0.169333 0.1524,0.457199 0,0.287866 -0.22013,0.474132 -0.2032,0.169333 -0.54187,0.169333 z"
         style="font-style:normal;font-variant:normal;font-weight:normal;font-stretch:normal;font-size:16.9333px;line-height:0%;font-family:Comfortaa;-inkscape-font-specification:'Comfortaa, Normal';font-variant-ligatures:normal;font-variant-caps:normal;font-variant-numeric:normal;font-variant-east-asian:normal;text-align:start;letter-spacing:0px;word-spacing:0px;writing-mode:lr-tb;text-anchor:start;fill:#000000;fill-opacity:1;stroke:none;stroke-width:0.264583px;stroke-linecap:butt;stroke-linejoin:miter;stroke-opacity:1"
         id="path860" />
      <path
         d="m 50.010729,12.69846 q 0.38946,0.1524 0.38946,0.491066 0,0.1524 -0.0677,0.304799 l -5.48639,12.05651 q -0.1524,0.389466 -0.49107,0.389466 -0.16933,0 -0.3048,-0.06773 -0.38946,-0.1524 -0.38946,-0.507999 0,-0.1524 0.0677,-0.3048 l 1.6764,-3.708393 v -0.01693 l -3.77613,-7.823184 q -0.0677,-0.135467 -0.0677,-0.3048 0,-0.355599 0.37253,-0.507999 0.13547,-0.06773 0.3048,-0.06773 0.3556,0 0.508,0.355599 l 3.30199,6.959587 3.1496,-6.942653 q 0.16933,-0.372533 0.508,-0.372533 0.1524,0 0.3048,0.06773 z"
         style="font-style:normal;font-variant:normal;font-weight:normal;font-stretch:normal;font-size:16.9333px;line-height:0%;font-family:Comfortaa;-inkscape-font-specification:'Comfortaa, Normal';font-variant-ligatures:normal;font-variant-caps:normal;font-variant-numeric:normal;font-variant-east-asian:normal;text-align:start;letter-spacing:0px;word-spacing:0px;writing-mode:lr-tb;text-anchor:start;fill:#000000;fill-opacity:1;stroke:none;stroke-width:0.264583px;stroke-linecap:butt;stroke-linejoin:miter;stroke-opacity:1"
         id="path862" />
    </g>
  </g>
</svg>
